  http://www.imdb.com/title/tt1228705/

Release Date: 7 May 2010 (USA)

Genre: Action | Adventure | Sci-Fi

Plot: Billionaire Tony Stark must contend with deadly issues involving the government, his own friends, as well as new enemies due to his superhero alter ego Iron Man.

Cast:
Robert Downey Jr. ... Tony Stark
Don Cheadle ... Lt. Col. James 'Rhodey' Rhodes / War Machine
Scarlett Johansson ... Natalie Rushman / Natasha Romanoff
Gwyneth Paltrow ... Pepper Potts
Sam Rockwell ... Justin Hammer
Mickey Rourke ... Ivan Vanko
Samuel L. Jackson ... Nick Fury
Clark Gregg ... Agent Coulson
John Slattery ... Howard Stark
Jon Favreau ... Happy Hogan
Paul Bettany ... Jarvis (voice)
Kate Mara ... U.S. Marshal
Leslie Bibb ... Christine Everhart
Garry Shandling ... Senator Stern
Christiane Amanpour ... Herself

Screens
 
http://www.imagebam.com/image/1c8e8396960929

File Name

Iron Man 2 2010 816p BRRip H264.mp4

File Size
Format : MPEG-4
Format profile : Base Media
Codec ID : isom
File size : 3.74 GiB
Duration : 2h 4mn
Overall bit rate : 4 291 Kbps

Video
ID : 1
Format : AVC
Format/Info : Advanced Video Codec
Format profile : High@L4.1
Format settings, CABAC : Yes
Format settings, ReFrames : 3 frames
Codec ID : avc1
Codec ID/Info : Advanced Video Coding
Duration : 2h 4mn
Bit rate mode : Variable
Bit rate : 3 649 Kbps
Maximum bit rate : 16.6 Mbps
Width : 1 920 pixels
Height : 816 pixels
Display aspect ratio : 2.35:1
Frame rate mode : Constant
Frame rate : 23.976 fps
Resolution : 24 bits
Colorimetry : 4:2:0
Scan type : Progressive
Bits/(Pixel*Frame) : 0.097
Stream size : 3.18 GiB (85%)

Audio #1
ID : 2
Format : AAC
Format/Info : Advanced Audio Codec
Format version : Version 4
Format profile : LC
Format settings, SBR : No
Codec ID : 40
Duration : 2h 4mn
Bit rate mode : Variable
Bit rate : 192 Kbps
Maximum bit rate : 199 Kbps
Channel(s) : 2 channels
Channel positions : L R
Sampling rate : 48.0 KHz
Resolution : 16 bits
Stream size : 171 MiB (4%)

Audio #2
ID : 3
Format : AAC
Format/Info : Advanced Audio Codec
Format version : Version 4
Format profile : LC
Format settings, SBR : No
Codec ID : 40
Duration : 2h 4mn
Bit rate mode : Variable
Bit rate : 448 Kbps
Maximum bit rate : 461 Kbps
Channel(s) : 6 channels
Channel positions : Front: L C R, Rear: L R, LFE
Sampling rate : 48.0 KHz
Resolution : 16 bits
Stream size : 400 MiB (10%)

English SUB : English forced subs in foreign parts

Language : English